<svg xmlns="http://www.w3.org/2000/svg" id="Capa_1" data-name="Capa 1" viewBox="0 0 200 200"><defs><style> .cls-1 { fill: #96a033; stroke-width: 0px; } </style></defs><path class="cls-1" d="M.3,99.38c.66-.75.39-1.69.42-2.53.58-18.07,5.65-34.8,15.44-49.95C31.7,22.84,53.66,8,81.72,2.25c4.11-.84,8.28-1.31,12.48-1.55.31-.02.65.08.9-.2h11.04c1.91.45,3.87.44,5.8.66,19.88,2.32,37.51,9.9,52.79,22.79,16.84,14.21,28.16,32.04,32.9,53.57,7.25,32.96.03,62.67-21.92,88.43-13.44,15.78-30.53,26.01-50.6,31.22-7.34,1.9-14.82,2.86-22.39,3.06-.38,0-.81-.15-1.13.19h-1.44c-.7-.41-1.48-.2-2.22-.22-23.01-.7-43.47-8.29-61.18-22.98-17.1-14.18-28.21-32.19-33.45-53.78-1.65-6.81-2.48-13.75-2.64-20.76,0-.39.24-.91-.35-1.14v-2.16ZM108.5,197.15c5.37.41,12.18-.54,18.84-2.65,16.86-5.36,31.35-14.64,43.36-27.5,23.31-24.95,31.41-54.58,24.24-87.76-6.64-30.77-25.3-52.73-53.34-66.67-13.33-6.63-27.65-9.21-42.51-9.01-7.31.1-14.54.79-21.61,2.6C48.69,13.57,27.5,30.72,13.85,56.96,4.83,74.3,1.99,92.93,4.33,112.34c1.79,14.81,6.66,28.5,14.94,40.92,10.6,15.89,24.35,28.05,42.18,35.32,14.56,5.94,29.83,8.15,47.05,8.57Z"></path><path class="cls-1" d="M99.24,9.57c20.07-.14,38.31,5.48,54.4,17.57,15.52,11.67,25.98,27.02,32.13,45.36,3.43,10.23,5.1,20.76,5.38,31.53.43,16.02-4.54,30.47-13.08,43.74-11.38,17.68-26.64,30.79-46.56,38.1-10.98,4.03-22.38,5.6-34.03,5.19-22.87-.8-42.75-9.03-59.38-24.71-15.36-14.49-24.69-32.3-27.47-53.26-3.76-28.42,4.03-53.46,23.4-74.6,14.3-15.6,32.18-24.79,53.13-27.96,4-.6,8.02-.91,12.06-.98ZM100.51,147.38c10.8,0,21.59,0,32.39,0,.82,0,1.48.03,1.47-1.14-.07-5.32.13-10.64-.13-15.95-.85-17.38-15.95-31.8-33.37-31.81-10.21,0-18.81,3.9-25.65,11.51-5.02,5.58-7.96,12.1-8.47,19.64-.36,5.35-.08,10.71-.15,16.06-.02,1.67,0,1.67,1.66,1.67,10.76,0,21.51,0,32.27,0ZM44.22,136.06c4.64,0,9.28-.02,13.92.02.95,0,1.25-.27,1.22-1.22-.1-3.16,0-6.32.58-9.44,1.77-9.69,6.48-17.69,13.9-24.13,1.05-.91,1.07-.94-.14-1.71-9.8-6.27-19.91-6.78-30.03-1.03-8.46,4.8-13.37,12.24-14.37,21.98-.49,4.73-.06,9.51-.17,14.27-.02,1.01.31,1.3,1.3,1.29,4.6-.04,9.2-.02,13.8-.02ZM156.67,136.06c4.64,0,9.28,0,13.92,0,.68,0,1.3.03,1.28-.95-.11-5.16.37-10.33-.28-15.46-2.66-20.93-26.65-31.87-44.18-20.19-1.35.9-1.35.9-.16,1.94,6.25,5.44,10.56,12.13,12.88,20.1,1.24,4.23,1.49,8.56,1.42,12.94-.03,1.61,0,1.62,1.56,1.62,4.52,0,9.04,0,13.56,0ZM100.42,91.1c10.44.01,18.9-8.37,18.92-18.76.02-10.47-8.33-18.91-18.73-18.92-10.64-.01-18.96,8.2-18.99,18.73-.03,10.55,8.29,18.93,18.8,18.95ZM59.27,57.18c-8.46,0-15.19,6.7-15.17,15.1.02,8.36,6.71,15.05,15.1,15.09,8.42.04,15.15-6.69,15.14-15.14,0-8.4-6.66-15.05-15.07-15.05ZM156.78,72.3c0-8.31-6.8-15.15-15.05-15.16-8.27,0-15.15,6.86-15.15,15.11,0,8.36,6.74,15.08,15.11,15.08,8.44,0,15.09-6.62,15.09-15.04Z"></path></svg>